<?xml version="1.0" standalone="no"?>
<!DOCTYPE svg PUBLIC "-//W3C//DTD SVG 20010904//EN"
 "http://www.w3.org/TR/2001/REC-SVG-20010904/DTD/svg10.dtd">
<svg version="1.0" xmlns="http://www.w3.org/2000/svg"
 width="200" height="80" viewBox="0 0 500.000000 280.000000"
 preserveAspectRatio="xMidYMid meet">

<g transform="translate(0.000000,280.000000) scale(0.100000,-0.100000)"
fill="#000000" stroke="none">
<path d="M2428 1770 c-197 -31 -360 -59 -363 -62 -3 -2 -1 -29 5 -58 5 -29 10
-156 10 -281 l0 -229 370 0 370 0 0 240 0 240 -342 0 -343 0 -22 41 c-23 43
-23 43 35 53 30 5 34 3 54 -38 20 -42 23 -44 57 -39 20 3 38 8 40 10 3 2 -3
20 -13 40 -20 42 -12 53 41 53 28 0 36 -6 53 -40 20 -39 22 -40 58 -34 20 4
39 8 41 10 2 2 -6 20 -18 40 -12 20 -20 38 -19 40 2 2 22 6 45 10 39 6 41 5
64 -35 23 -41 38 -48 85 -35 l21 6 -21 38 c-11 21 -19 41 -16 43 3 3 23 8 46
11 40 7 41 7 59 -34 16 -37 22 -41 49 -38 29 3 31 5 28 37 -8 73 20 72 -374
11z m-193 -177 c-4 -10 -12 -30 -17 -45 -9 -25 -15 -28 -55 -28 -41 0 -44 1
-37 23 20 66 21 67 70 67 40 0 45 -2 39 -17z m175 11 c0 -4 -5 -24 -12 -45
-11 -38 -13 -39 -55 -39 -48 0 -47 -2 -31 51 11 38 13 39 55 39 23 0 43 -3 43
-6z m174 -16 c-20 -67 -21 -68 -69 -68 -25 0 -45 2 -45 5 0 2 7 23 16 45 15
38 18 40 61 40 41 0 44 -1 37 -22z m169 -23 c-15 -44 -16 -45 -59 -45 -48 0
-51 4 -30 55 14 33 18 35 60 35 l45 0 -16 -45z"/>
<path d="M1530 1790 c-42 -42 -13 -110 46 -110 24 0 64 43 64 67 0 21 -46 63
-70 63 -11 0 -29 -9 -40 -20z"/>
<path d="M331 1685 c-11 -39 -56 -193 -98 -342 -72 -253 -80 -273 -100 -273
-13 0 -23 -4 -23 -10 0 -5 7 -10 16 -10 14 0 15 -7 10 -40 l-6 -41 61 3 c61 3
62 4 73 38 l11 35 172 3 172 2 11 -40 11 -40 60 0 61 0 -7 40 -7 40 1126 0
1126 0 0 -35 0 -35 150 0 150 0 0 35 0 35 800 0 c527 0 800 3 800 10 0 7 -273
10 -799 10 -701 0 -800 2 -805 15 -4 12 -24 15 -86 15 l-80 0 0 285 0 285 -65
0 -65 0 0 -300 0 -300 -1132 2 -1132 3 -98 334 c-53 183 -99 335 -101 337 -2
2 -23 -59 -47 -136 -24 -77 -46 -138 -48 -135 -2 2 -23 66 -47 142 l-43 137
-21 -69z m65 -462 c28 -93 29 -94 59 -91 29 3 30 5 54 108 l24 105 38 -130
c21 -71 39 -133 39 -137 0 -5 -75 -8 -166 -8 -147 0 -165 2 -160 16 3 8 20 69
38 134 18 66 35 114 39 108 4 -6 20 -54 35 -105z"/>
<path d="M855 1634 c-58 -20 -106 -64 -140 -125 -24 -44 -29 -66 -29 -119 1
-36 8 -81 16 -101 41 -95 143 -161 248 -161 149 0 260 111 260 260 0 108 -46
184 -143 232 -68 34 -142 39 -212 14z m165 -34 c41 -41 13 -112 -45 -112 -58
0 -86 71 -45 112 11 11 31 20 45 20 14 0 34 -9 45 -20z m-151 -66 c12 -15 21
-32 21 -39 0 -7 -9 -24 -21 -39 -38 -48 -119 -22 -119 39 0 61 81 87 119 39z
m270 -29 c49 -25 49 -89 1 -115 -29 -15 -51 -12 -77 12 -43 40 -19 104 45 117
2 1 16 -6 31 -14z m-145 -66 c51 -40 21 -119 -46 -119 -42 0 -68 25 -68 66 0
38 32 74 66 74 12 0 33 -9 48 -21z m-154 -69 c26 -26 25 -51 -1 -84 -28 -35
-70 -35 -99 1 -52 66 40 143 100 83z m285 -45 c14 -13 25 -33 25 -45 0 -11
-11 -32 -25 -45 -13 -14 -33 -25 -45 -25 -11 0 -32 11 -45 25 -14 13 -25 34
-25 45 0 12 11 32 25 45 13 14 34 25 45 25 12 0 32 -11 45 -25z m-161 -56 c40
-32 30 -90 -20 -109 -50 -20 -104 33 -84 84 18 47 62 58 104 25z"/>
<path d="M945 1440 c-7 -12 2 -30 16 -30 12 0 12 27 0 35 -5 3 -12 1 -16 -5z"/>
<path d="M900 1415 c0 -8 7 -15 15 -15 8 0 15 7 15 15 0 8 -7 15 -15 15 -8 0
-15 -7 -15 -15z"/>
<path d="M975 1411 c-7 -12 12 -24 25 -16 11 7 4 25 -10 25 -5 0 -11 -4 -15
-9z"/>
<path d="M937 1394 c-8 -8 1 -24 14 -24 5 0 9 7 9 15 0 15 -12 20 -23 9z"/>
<path d="M897 1383 c-12 -11 -8 -23 8 -23 8 0 15 7 15 15 0 16 -12 20 -23 8z"/>
<path d="M974 1366 c-8 -22 3 -33 18 -18 9 9 9 15 0 24 -9 9 -13 7 -18 -6z"/>
<path d="M930 1345 c0 -8 7 -15 15 -15 8 0 15 7 15 15 0 8 -7 15 -15 15 -8 0
-15 -7 -15 -15z"/>
<path d="M3344 1640 c-147 -46 -227 -215 -166 -352 21 -49 88 -113 138 -134
51 -21 159 -18 210 7 49 23 111 88 126 130 5 16 13 29 16 29 4 0 22 -27 41
-59 19 -33 51 -79 71 -102 l37 -43 47 60 c25 32 69 102 96 154 l49 95 1 -142
0 -143 100 0 100 0 0 59 0 60 -37 3 c-37 3 -38 4 -38 43 0 38 2 40 33 43 l32
3 0 60 0 59 -35 0 c-28 0 -35 4 -35 20 0 17 7 20 40 20 l40 0 0 60 0 60 -142
-1 c-157 -1 -178 -7 -222 -60 l-27 -32 -37 38 c-60 61 -127 74 -165 31 l-21
-24 -53 30 c-58 33 -144 45 -199 28z m133 -127 c53 -25 75 -67 70 -131 -3 -43
-10 -59 -34 -83 -59 -59 -147 -56 -202 7 -25 28 -31 43 -31 82 0 109 99 172
197 125z"/>
<path d="M4651 1632 c-47 -23 -72 -61 -78 -113 -6 -65 22 -103 101 -139 73
-32 94 -59 77 -96 -22 -50 -84 -52 -151 -4 l-29 21 -3 -58 -3 -58 -29 74 -29
75 20 35 c41 74 37 141 -13 201 -42 49 -73 60 -174 60 l-90 0 0 -245 0 -245
60 0 60 0 0 185 c0 179 1 185 20 185 44 0 52 -92 10 -105 -24 -8 -25 5 8 -140
l27 -120 73 -3 c43 -2 72 1 72 7 0 6 15 4 35 -5 110 -45 240 20 261 132 16 84
-25 151 -116 191 -61 28 -74 41 -58 60 14 17 42 16 78 -2 l30 -16 0 60 0 60
-37 10 c-54 15 -83 14 -122 -7z"/>
<path d="M1170 1623 c0 -16 155 -473 161 -473 3 0 38 102 79 228 40 125 75
233 78 240 3 10 -10 12 -59 10 l-64 -3 -14 -62 c-8 -35 -18 -63 -23 -63 -4 0
-8 5 -8 11 0 6 -7 35 -16 65 l-15 54 -60 0 c-32 0 -59 -3 -59 -7z"/>
<path d="M1510 1385 l0 -245 60 0 60 0 0 245 0 245 -60 0 -60 0 0 -245z"/>
<path d="M1690 1385 l0 -245 100 0 100 0 0 60 0 60 -40 0 -40 0 0 45 c0 43 1
45 30 45 l30 0 0 60 0 60 -30 0 c-23 0 -30 5 -30 19 0 16 8 20 38 23 l37 3 3
58 3 57 -101 0 -100 0 0 -245z"/>
</g>
</svg>
